<svg version="1.1" id="Layer_1" xmlns="http://www.w3.org/2000/svg" xmlns:xlink="http://www.w3.org/1999/xlink" x="0px" y="0px"
	 width="100%" viewBox="0 0 1024 1024" enable-background="new 0 0 1024 1024" xml:space="preserve">
<path fill="#0A1227" opacity="1.000000" stroke="none" 
	d="
M574.000000,1025.000000 
	C382.666656,1025.000000 191.833328,1025.000000 1.000000,1025.000000 
	C1.000000,683.666687 1.000000,342.333344 1.000000,1.000000 
	C342.333344,1.000000 683.666687,1.000000 1025.000000,1.000000 
	C1025.000000,342.333344 1025.000000,683.666687 1025.000000,1025.000000 
	C874.833313,1025.000000 724.666687,1025.000000 574.000000,1025.000000 
M859.815796,911.172058 
	C860.733154,906.840454 862.422058,902.513184 862.446716,898.176514 
	C862.658203,861.014648 862.593567,823.851135 862.556274,786.688110 
	C862.541748,772.165039 854.479187,763.923157 840.030212,763.892944 
	C802.534180,763.814575 765.037781,763.822998 727.541748,763.904053 
	C713.666931,763.934082 705.485229,772.229553 705.411194,786.031128 
	C705.357544,796.029846 705.135437,806.038208 705.493164,816.024170 
	C705.670715,820.980286 703.932190,822.137207 699.225586,822.092712 
	C676.063293,821.873779 652.896973,822.104858 629.733826,821.934448 
	C623.592834,821.889343 617.388733,821.406189 611.331360,820.408813 
	C550.039490,810.316956 502.339752,754.195923 502.072479,691.755676 
	C501.897736,650.927063 502.029938,610.097168 502.058228,569.267822 
	C502.071198,550.539490 511.340546,541.301514 530.031738,541.312500 
	C550.362305,541.324463 570.692871,541.386414 591.023438,541.385498 
	C641.518250,541.383118 692.013000,541.342651 742.507812,541.357605 
	C749.664795,541.359741 749.699463,541.463623 749.717102,548.548767 
	C749.746948,560.547363 749.648254,572.546814 749.750427,584.544617 
	C749.867981,598.345825 757.774597,606.374939 771.474670,606.403198 
	C808.970581,606.480652 846.466980,606.493774 883.962830,606.393677 
	C899.120544,606.353210 906.777527,598.686829 906.817810,583.576477 
	C906.918091,545.913757 906.915405,508.250519 906.866333,470.587616 
	C906.850403,458.373993 898.587158,449.409454 886.316345,449.331116 
	C847.488647,449.083252 808.657227,449.094971 769.829651,449.360870 
	C757.851624,449.442871 749.764160,458.406616 749.697083,470.398407 
	C749.632751,481.896973 749.689575,493.396149 749.640686,504.894836 
	C749.632507,506.817444 749.357361,508.738922 749.167725,511.139648 
	C746.560425,511.139648 744.423218,511.139923 742.286011,511.139618 
	C670.959656,511.128967 599.633301,511.126984 528.306946,511.101166 
	C511.556244,511.095123 502.034790,501.516144 502.029724,484.652283 
	C502.015991,438.656799 502.230743,392.660248 501.974121,346.666260 
	C501.831757,321.143829 508.063751,297.391296 521.060974,275.644867 
	C544.891785,235.771912 579.534729,212.145569 626.569092,209.771149 
	C651.335327,208.520889 676.218933,209.646698 701.048889,209.551559 
	C704.754639,209.537354 705.490417,211.200150 705.458618,214.404465 
	C705.339539,226.401962 705.227905,238.403519 705.412720,250.398926 
	C705.597046,262.356659 714.101624,271.068451 725.967529,271.114838 
	C764.629761,271.265930 803.293213,271.262054 841.955566,271.136597 
	C853.696472,271.098511 861.923462,262.764313 862.528687,250.996323 
	C862.605591,249.499481 862.600464,247.997391 862.600586,246.497742 
	C862.603577,209.834702 862.623840,173.171661 862.591370,136.508652 
	C862.577698,121.123970 854.582031,113.154449 839.117798,113.138741 
	C801.954773,113.100983 764.791687,113.105370 727.628662,113.134079 
	C713.841797,113.144730 705.467407,121.467705 705.410583,135.160995 
	C705.358032,147.826218 705.218018,160.495071 705.465942,173.155472 
	C705.555786,177.742279 704.061096,179.061966 699.493774,179.021851 
	C676.664551,178.821320 653.832458,178.940262 631.001343,178.980087 
	C606.363770,179.023087 582.791931,184.355927 561.375916,196.339478 
	C504.263550,228.297409 474.610474,277.929565 472.460846,342.872345 
	C470.901520,389.982758 472.170349,437.186279 472.149811,484.348297 
	C472.142365,501.451599 462.649323,511.038239 445.623810,511.089325 
	C424.959351,511.151306 404.292572,510.960876 383.631561,511.236420 
	C378.934845,511.299072 377.783966,509.903534 377.822174,505.377350 
	C378.024811,481.381470 377.978271,457.382660 377.879242,433.385437 
	C377.825623,420.393127 369.229736,411.412323 356.339569,411.389923 
	C286.680054,411.268768 217.020218,411.272034 147.360641,411.354645 
	C134.708252,411.369659 125.917145,420.219269 125.903206,432.824341 
	C125.833763,495.651306 125.837677,558.478455 125.930496,621.305420 
	C125.950783,635.035278 134.480606,643.310608 148.224731,643.315613 
	C217.051163,643.340637 285.877594,643.336975 354.704041,643.307739 
	C369.451233,643.301453 377.747711,635.187805 377.830505,620.489502 
	C377.968567,595.992798 378.014069,571.494385 377.847534,546.998352 
	C377.818207,542.681946 378.921936,541.213928 383.406189,541.266907 
	C404.234589,541.512756 425.067627,541.332153 445.897522,541.493530 
	C462.655518,541.623352 472.129730,551.363281 472.132294,568.072632 
	C472.138306,607.568787 472.214264,647.065002 472.135254,686.560974 
	C472.102051,703.169434 474.278046,719.386841 478.734436,735.417358 
	C497.672729,803.542114 561.420715,852.423401 632.063843,852.682495 
	C654.894653,852.766235 677.726257,852.809265 700.556458,852.683228 
	C704.238342,852.662903 705.487488,853.708862 705.440430,857.467590 
	C705.263123,871.630615 705.276672,885.798218 705.414368,899.962219 
	C705.539978,912.876221 713.813538,921.265625 726.753418,921.305481 
	C764.915771,921.423218 803.078796,921.341125 841.241516,921.355286 
	C848.996765,921.358154 855.095459,918.282898 859.815796,911.172058 
z"/>
<path fill="#4AA378" opacity="1.000000" stroke="none" 
	d="
M859.622070,911.489136 
	C855.095459,918.282898 848.996765,921.358154 841.241516,921.355286 
	C803.078796,921.341125 764.915771,921.423218 726.753418,921.305481 
	C713.813538,921.265625 705.539978,912.876221 705.414368,899.962219 
	C705.276672,885.798218 705.263123,871.630615 705.440430,857.467590 
	C705.487488,853.708862 704.238342,852.662903 700.556458,852.683228 
	C677.726257,852.809265 654.894653,852.766235 632.063843,852.682495 
	C561.420715,852.423401 497.672729,803.542114 478.734436,735.417358 
	C474.278046,719.386841 472.102051,703.169434 472.135254,686.560974 
	C472.214264,647.065002 472.138306,607.568787 472.132294,568.072632 
	C472.129730,551.363281 462.655518,541.623352 445.897522,541.493530 
	C425.067627,541.332153 404.234589,541.512756 383.406189,541.266907 
	C378.921936,541.213928 377.818207,542.681946 377.847534,546.998352 
	C378.014069,571.494385 377.968567,595.992798 377.830505,620.489502 
	C377.747711,635.187805 369.451233,643.301453 354.704041,643.307739 
	C285.877594,643.336975 217.051163,643.340637 148.224731,643.315613 
	C134.480606,643.310608 125.950783,635.035278 125.930496,621.305420 
	C125.837677,558.478455 125.833763,495.651306 125.903206,432.824341 
	C125.917145,420.219269 134.708252,411.369659 147.360641,411.354645 
	C217.020218,411.272034 286.680054,411.268768 356.339569,411.389923 
	C369.229736,411.412323 377.825623,420.393127 377.879242,433.385437 
	C377.978271,457.382660 378.024811,481.381470 377.822174,505.377350 
	C377.783966,509.903534 378.934845,511.299072 383.631561,511.236420 
	C404.292572,510.960876 424.959351,511.151306 445.623810,511.089325 
	C462.649323,511.038239 472.142365,501.451599 472.149811,484.348297 
	C472.170349,437.186279 470.901520,389.982758 472.460846,342.872345 
	C474.610474,277.929565 504.263550,228.297409 561.375916,196.339478 
	C582.791931,184.355927 606.363770,179.023087 631.001343,178.980087 
	C653.832458,178.940262 676.664551,178.821320 699.493774,179.021851 
	C704.061096,179.061966 705.555786,177.742279 705.465942,173.155472 
	C705.218018,160.495071 705.358032,147.826218 705.410583,135.160995 
	C705.467407,121.467705 713.841797,113.144730 727.628662,113.134079 
	C764.791687,113.105370 801.954773,113.100983 839.117798,113.138741 
	C854.582031,113.154449 862.577698,121.123970 862.591370,136.508652 
	C862.623840,173.171661 862.603577,209.834702 862.600586,246.497742 
	C862.600464,247.997391 862.605591,249.499481 862.528687,250.996323 
	C861.923462,262.764313 853.696472,271.098511 841.955566,271.136597 
	C803.293213,271.262054 764.629761,271.265930 725.967529,271.114838 
	C714.101624,271.068451 705.597046,262.356659 705.412720,250.398926 
	C705.227905,238.403519 705.339539,226.401962 705.458618,214.404465 
	C705.490417,211.200150 704.754639,209.537354 701.048889,209.551559 
	C676.218933,209.646698 651.335327,208.520889 626.569092,209.771149 
	C579.534729,212.145569 544.891785,235.771912 521.060974,275.644867 
	C508.063751,297.391296 501.831757,321.143829 501.974121,346.666260 
	C502.230743,392.660248 502.015991,438.656799 502.029724,484.652283 
	C502.034790,501.516144 511.556244,511.095123 528.306946,511.101166 
	C599.633301,511.126984 670.959656,511.128967 742.286011,511.139618 
	C744.423218,511.139923 746.560425,511.139648 749.167725,511.139648 
	C749.357361,508.738922 749.632507,506.817444 749.640686,504.894836 
	C749.689575,493.396149 749.632751,481.896973 749.697083,470.398407 
	C749.764160,458.406616 757.851624,449.442871 769.829651,449.360870 
	C808.657227,449.094971 847.488647,449.083252 886.316345,449.331116 
	C898.587158,449.409454 906.850403,458.373993 906.866333,470.587616 
	C906.915405,508.250519 906.918091,545.913757 906.817810,583.576477 
	C906.777527,598.686829 899.120544,606.353210 883.962830,606.393677 
	C846.466980,606.493774 808.970581,606.480652 771.474670,606.403198 
	C757.774597,606.374939 749.867981,598.345825 749.750427,584.544617 
	C749.648254,572.546814 749.746948,560.547363 749.717102,548.548767 
	C749.699463,541.463623 749.664795,541.359741 742.507812,541.357605 
	C692.013000,541.342651 641.518250,541.383118 591.023438,541.385498 
	C570.692871,541.386414 550.362305,541.324463 530.031738,541.312500 
	C511.340546,541.301514 502.071198,550.539490 502.058228,569.267822 
	C502.029938,610.097168 501.897736,650.927063 502.072479,691.755676 
	C502.339752,754.195923 550.039490,810.316956 611.331360,820.408813 
	C617.388733,821.406189 623.592834,821.889343 629.733826,821.934448 
	C652.896973,822.104858 676.063293,821.873779 699.225586,822.092712 
	C703.932190,822.137207 705.670715,820.980286 705.493164,816.024170 
	C705.135437,806.038208 705.357544,796.029846 705.411194,786.031128 
	C705.485229,772.229553 713.666931,763.934082 727.541748,763.904053 
	C765.037781,763.822998 802.534180,763.814575 840.030212,763.892944 
	C854.479187,763.923157 862.541748,772.165039 862.556274,786.688110 
	C862.593567,823.851135 862.658203,861.014648 862.446716,898.176514 
	C862.422058,902.513184 860.733154,906.840454 859.622070,911.489136 
M350.437988,501.499939 
	C350.446442,482.675995 350.294830,463.849731 350.570679,445.029724 
	C350.643860,440.037170 349.277435,438.594269 344.165070,438.609619 
	C282.360962,438.795166 220.556091,438.731720 158.751419,438.750427 
	C156.987640,438.750946 155.223907,438.942017 153.286774,439.054291 
	C153.170563,440.843170 153.012589,442.145172 153.011963,443.447235 
	C152.985168,499.421356 153.015488,555.395630 152.869751,611.369385 
	C152.858978,615.507507 154.366669,616.330627 158.085052,616.324524 
	C219.889603,616.222961 281.694366,616.238403 343.499054,616.203308 
	C350.358948,616.199402 350.384766,616.130432 350.389587,609.450073 
	C350.415375,573.800049 350.427185,538.150024 350.437988,501.499939 
M879.965820,508.500000 
	C879.968201,500.003998 879.997131,491.507904 879.964539,483.012024 
	C879.939087,476.385895 879.905090,476.320160 873.419495,476.317200 
	C842.934448,476.303223 812.449158,476.388123 781.964661,476.265442 
	C778.089722,476.249817 776.841919,477.313232 776.858337,481.317719 
	C776.984375,511.968628 776.972473,542.621216 776.751038,573.271362 
	C776.717041,577.977173 777.926758,579.571228 782.833496,579.535522 
	C813.483521,579.312195 844.136169,579.319702 874.786926,579.460022 
	C879.064209,579.479614 880.067932,577.991089 880.036560,573.968018 
	C879.869080,552.479797 879.963440,530.989563 879.965820,508.500000 
M732.811523,233.466095 
	C732.805969,234.466141 732.800049,235.466187 732.794983,236.466232 
	C732.752197,244.948227 732.176453,243.893646 740.330750,243.908936 
	C770.329102,243.965179 800.328003,243.879181 830.325806,244.020096 
	C834.200317,244.038284 835.551270,242.927719 835.536133,238.959259 
	C835.418091,208.128143 835.384766,177.295715 835.589600,146.465439 
	C835.622009,141.583755 834.053711,140.300888 829.319275,140.332626 
	C799.155823,140.534851 768.989685,140.563217 738.826416,140.356873 
	C733.995300,140.323807 732.646057,141.649307 732.683838,146.479446 
	C732.908081,175.142960 732.805054,203.809021 732.811523,233.466095 
M732.758850,860.499756 
	C732.758850,871.588013 732.758850,882.676270 732.758850,894.231079 
	C735.320557,894.231079 736.958130,894.231140 738.595764,894.231079 
	C768.757202,894.229675 798.919556,894.109497 829.079163,894.343750 
	C834.118835,894.382812 835.583008,893.001465 835.547729,887.958679 
	C835.334595,857.465637 835.349365,826.969910 835.535706,796.476562 
	C835.563599,791.926208 834.023926,790.941528 829.767883,790.964111 
	C799.274231,791.125671 768.778687,791.134766 738.285278,790.941101 
	C733.888428,790.913208 732.627625,792.067688 732.675659,796.511841 
	C732.902466,817.505615 732.767395,838.503357 732.758850,860.499756 
z"/>
<path fill="#0A1227" opacity="1.000000" stroke="none" 
	d="
M350.440918,501.999969 
	C350.427185,538.150024 350.415375,573.800049 350.389587,609.450073 
	C350.384766,616.130432 350.358948,616.199402 343.499054,616.203308 
	C281.694366,616.238403 219.889603,616.222961 158.085052,616.324524 
	C154.366669,616.330627 152.858978,615.507507 152.869751,611.369385 
	C153.015488,555.395630 152.985168,499.421356 153.011963,443.447235 
	C153.012589,442.145172 153.170563,440.843170 153.286774,439.054291 
	C155.223907,438.942017 156.987640,438.750946 158.751419,438.750427 
	C220.556091,438.731720 282.360962,438.795166 344.165070,438.609619 
	C349.277435,438.594269 350.643860,440.037170 350.570679,445.029724 
	C350.294830,463.849731 350.446442,482.675995 350.440918,501.999969 
z"/>
<path fill="#0A1327" opacity="1.000000" stroke="none" 
	d="
M879.966553,509.000000 
	C879.963440,530.989563 879.869080,552.479797 880.036560,573.968018 
	C880.067932,577.991089 879.064209,579.479614 874.786926,579.460022 
	C844.136169,579.319702 813.483521,579.312195 782.833496,579.535522 
	C777.926758,579.571228 776.717041,577.977173 776.751038,573.271362 
	C776.972473,542.621216 776.984375,511.968628 776.858337,481.317719 
	C776.841919,477.313232 778.089722,476.249817 781.964661,476.265442 
	C812.449158,476.388123 842.934448,476.303223 873.419495,476.317200 
	C879.905090,476.320160 879.939087,476.385895 879.964539,483.012024 
	C879.997131,491.507904 879.968201,500.003998 879.966553,509.000000 
z"/>
<path fill="#0A1328" opacity="1.000000" stroke="none" 
	d="
M732.811768,232.970154 
	C732.805054,203.809021 732.908081,175.142960 732.683838,146.479446 
	C732.646057,141.649307 733.995300,140.323807 738.826416,140.356873 
	C768.989685,140.563217 799.155823,140.534851 829.319275,140.332626 
	C834.053711,140.300888 835.622009,141.583755 835.589600,146.465439 
	C835.384766,177.295715 835.418091,208.128143 835.536133,238.959259 
	C835.551270,242.927719 834.200317,244.038284 830.325806,244.020096 
	C800.328003,243.879181 770.329102,243.965179 740.330750,243.908936 
	C732.176453,243.893646 732.752197,244.948227 732.794983,236.466232 
	C732.800049,235.466187 732.805969,234.466141 732.811768,232.970154 
z"/>
<path fill="#0A1227" opacity="1.000000" stroke="none" 
	d="
M732.760132,859.999695 
	C732.767395,838.503357 732.902466,817.505615 732.675659,796.511841 
	C732.627625,792.067688 733.888428,790.913208 738.285278,790.941101 
	C768.778687,791.134766 799.274231,791.125671 829.767883,790.964111 
	C834.023926,790.941528 835.563599,791.926208 835.535706,796.476562 
	C835.349365,826.969910 835.334595,857.465637 835.547729,887.958679 
	C835.583008,893.001465 834.118835,894.382812 829.079163,894.343750 
	C798.919556,894.109497 768.757202,894.229675 738.595764,894.231079 
	C736.958130,894.231140 735.320557,894.231079 732.758850,894.231079 
	C732.758850,882.676270 732.758850,871.588013 732.760132,859.999695 
z"/>
</svg>